<svg width="63" height="57" viewBox="0 0 63 57" fill="none" xmlns="http://www.w3.org/2000/svg">
<path d="M62.5296 40.1682C58.5693 37.377 55.293 33.7418 52.9424 29.5306L38.5392 3.62351C38.4726 3.49419 38.3794 3.38008 38.2656 3.28849C38.1518 3.19689 38.0199 3.12984 37.8784 3.09162C37.594 3.00852 37.2879 3.0404 37.0272 3.18027L9.77757 18.0065C9.64808 18.0768 9.53392 18.1717 9.44166 18.2858C9.34939 18.3999 9.28085 18.5309 9.23997 18.6713C9.15938 18.9542 9.19564 19.2571 9.34077 19.5135L23.7328 45.4316L24.528 46.7613C23.1097 45.5271 21.8019 44.1739 20.6192 42.7168L2.69917 20.4554L25.2672 2.72596L27.3168 5.20807C27.5024 5.44465 27.7755 5.59857 28.0758 5.63597C28.3762 5.67338 28.6793 5.5912 28.9184 5.40753C29.1575 5.22385 29.3131 4.95372 29.3509 4.65655C29.3887 4.35939 29.3056 4.05954 29.12 3.82296L26.32 0.410053C26.2265 0.297738 26.1125 0.203773 25.984 0.133031C25.858 0.0563586 25.7179 0.00513229 25.5718 -0.0176903C25.4257 -0.0405128 25.2765 -0.0344797 25.1328 6.10091e-05C24.9913 0.0349115 24.8606 0.103376 24.752 0.199517L0.425574 19.4027C0.309689 19.4933 0.213074 19.6057 0.141293 19.7335C0.0695114 19.8612 0.0239815 20.0017 0.00732517 20.147C-0.00933117 20.2922 0.00321514 20.4392 0.0442416 20.5796C0.0852681 20.7201 0.153964 20.851 0.246374 20.9651L18.872 44.0909C21.6492 47.529 25.072 50.4037 28.952 52.5566C29.0078 52.563 29.0642 52.563 29.12 52.5566C30.6081 54.0971 32.2392 55.4958 33.992 56.7341C34.1824 56.8656 34.4094 56.9353 34.6416 56.9336C34.7799 56.9348 34.917 56.9084 35.0448 56.856H35.1792L62.4288 42.0409C62.5938 41.9495 62.7327 41.8182 62.8326 41.6593C62.9325 41.5004 62.99 41.3191 63 41.1323C63.0103 40.9453 62.9725 40.7589 62.8902 40.5903C62.808 40.4217 62.6839 40.2765 62.5296 40.1682ZM25.76 44.3235L19.824 33.6527L35.8064 29.043C36.1973 28.9375 36.5824 28.8117 36.96 28.6663C38.8694 27.9321 40.5968 26.8 42.0249 25.3469C43.4531 23.8938 44.5485 22.1538 45.2368 20.2448L50.9936 30.5943C53.218 34.5824 56.2218 38.093 59.8304 40.9217L34.72 54.5844C31.0277 51.8356 27.9727 48.337 25.76 44.3235ZM35.1792 26.9155L18.7152 31.6581L11.8384 19.4137L37.1168 5.66239L43.68 17.4192C43.3005 19.6404 42.2967 21.7111 40.7835 23.3944C39.2703 25.0777 37.3087 26.3056 35.1232 26.9377L35.1792 26.9155Z" fill="#A8ABFF"/>
<path d="M31.36 44.4565L35.4032 42.2404C35.6605 42.0962 35.8497 41.8572 35.9296 41.5755C36.0136 41.2941 35.9813 40.9913 35.84 40.7334C35.7696 40.6051 35.6744 40.4918 35.5596 40.4C35.4449 40.3082 35.313 40.2398 35.1715 40.1986C35.0299 40.1574 34.8816 40.1443 34.7349 40.16C34.5882 40.1757 34.4461 40.2199 34.3168 40.2901L30.2848 42.5063C30.1541 42.5722 30.0387 42.6644 29.9461 42.777C29.8536 42.8896 29.7858 43.0201 29.7472 43.1601C29.6632 43.4415 29.6954 43.7443 29.8368 44.0022C29.9335 44.1771 30.0761 44.3229 30.2495 44.4243C30.423 44.5257 30.6209 44.579 30.8224 44.5784C30.9595 44.578 31.0957 44.5556 31.2256 44.512L31.36 44.4565Z" fill="#FAA4AD"/>
<path d="M32.592 48.3349C32.5142 48.6205 32.5461 48.9244 32.6816 49.1881C32.7797 49.3609 32.923 49.5045 33.0963 49.6039C33.2697 49.7033 33.4668 49.7549 33.6672 49.7532C33.8043 49.7528 33.9405 49.7304 34.0704 49.6867L34.2048 49.6203L44.9792 43.7585C45.1088 43.6889 45.2234 43.5946 45.3161 43.4811C45.4089 43.3676 45.4781 43.2371 45.5197 43.0971C45.5613 42.9571 45.5746 42.8103 45.5587 42.6652C45.5428 42.52 45.4981 42.3795 45.4272 42.2515C45.3559 42.1241 45.2599 42.0119 45.1448 41.9212C45.0296 41.8306 44.8975 41.7632 44.7561 41.7231C44.6146 41.683 44.4665 41.6708 44.3203 41.6873C44.1741 41.7038 44.0326 41.7487 43.904 41.8193L33.1296 47.6479C32.9978 47.7206 32.8822 47.819 32.7899 47.9371C32.6975 48.0551 32.6302 48.1904 32.592 48.3349Z" fill="#FAA4AD"/>
<path d="M39.928 39.6252C40.0663 39.6264 40.2034 39.6 40.3312 39.5477H40.4656L42.112 38.6501C42.2414 38.5774 42.3551 38.4801 42.4465 38.3639C42.538 38.2476 42.6054 38.1147 42.6449 37.9727C42.6844 37.8307 42.6953 37.6824 42.6768 37.5363C42.6584 37.3901 42.6111 37.249 42.5376 37.1209C42.464 36.9929 42.3657 36.8804 42.2482 36.79C42.1308 36.6995 41.9964 36.6328 41.8529 36.5937C41.7094 36.5546 41.5595 36.5439 41.4118 36.5621C41.2641 36.5803 41.1214 36.6271 40.992 36.6999L39.3456 37.5974C39.2159 37.667 39.1014 37.7613 39.0086 37.8748C38.9158 37.9883 38.8467 38.1188 38.805 38.2588C38.7634 38.3988 38.7501 38.5456 38.766 38.6908C38.7819 38.8359 38.8266 38.9765 38.8976 39.1044C39.0051 39.2758 39.1579 39.4149 39.3395 39.5067C39.5211 39.5984 39.7246 39.6394 39.928 39.6252Z" fill="#FAA4AD"/>
<path d="M19.6448 18.8375C19.132 18.6276 18.5559 18.6276 18.0432 18.8375C17.7918 18.94 17.5635 19.0907 17.3713 19.2808C17.179 19.471 17.0268 19.6969 16.9232 19.9456C16.7809 20.2621 16.721 20.6088 16.7491 20.954C16.7772 21.2993 16.8923 21.632 17.0839 21.9219C17.2756 22.2118 17.5376 22.4495 17.846 22.6134C18.1544 22.7772 18.4995 22.862 18.8496 22.8599C19.1966 22.8546 19.537 22.765 19.8409 22.5989C20.1447 22.4328 20.4025 22.1953 20.5917 21.9074C20.7809 21.6195 20.8957 21.29 20.9259 20.9479C20.956 20.6058 20.9007 20.2616 20.7648 19.9456C20.5495 19.4474 20.1483 19.0505 19.6448 18.8375Z" fill="#FAA4AD"/>
</svg>
