<svg width="53" height="61" viewBox="0 0 53 61" fill="none" xmlns="http://www.w3.org/2000/svg">
<g clip-path="url(#clip0_38_81)">
<path d="M34.9747 50.4775C34.6836 50.4775 34.4044 50.5923 34.1985 50.7965C33.9926 51.0008 33.877 51.2779 33.877 51.5668V56.4359C33.8741 57.0966 33.6083 57.7294 33.1375 58.1966C32.6667 58.6638 32.0289 58.9275 31.3631 58.9304H4.62158C3.95676 58.9275 3.32017 58.6634 2.85109 58.1959C2.38202 57.7284 2.11868 57.0956 2.11868 56.4359V4.59679C2.11868 3.9371 2.38202 3.30426 2.85109 2.83677C3.32017 2.36928 3.95676 2.1052 4.62158 2.10232H15.4675C15.6739 2.60596 16.0271 3.03709 16.4817 3.3406C16.9363 3.64411 17.4718 3.80622 18.0198 3.80622C18.5677 3.80622 19.1032 3.64411 19.5579 3.3406C20.0125 3.03709 20.3656 2.60596 20.5721 2.10232H31.407C32.0728 2.10519 32.7106 2.36892 33.1814 2.8361C33.6522 3.30328 33.918 3.9361 33.9209 4.59679V9.46589C33.8766 9.62744 33.8705 9.79694 33.903 9.96122C33.9355 10.1255 34.0057 10.2801 34.1081 10.4131C34.2106 10.5461 34.3426 10.6539 34.4938 10.7281C34.6451 10.8023 34.8115 10.8408 34.9802 10.8408C35.1489 10.8408 35.3154 10.8023 35.4666 10.7281C35.6179 10.6539 35.7499 10.5461 35.8523 10.4131C35.9548 10.2801 36.025 10.1255 36.0575 9.96122C36.0899 9.79694 36.0838 9.62744 36.0396 9.46589V4.59679C36.0396 3.37764 35.5515 2.20843 34.6827 1.34637C33.8139 0.484303 32.6356 0 31.407 0L4.62158 0C3.39485 0.0028845 2.21936 0.48846 1.35296 1.35021C0.486561 2.21196 -3.44424e-06 3.37953 0 4.59679L0 56.4032C-3.44424e-06 57.6205 0.486561 58.788 1.35296 59.6498C2.21936 60.5115 3.39485 60.9971 4.62158 61H31.407C32.6356 61 33.8139 60.5157 34.6827 59.6536C35.5515 58.7916 36.0396 57.6224 36.0396 56.4032V51.5341C36.0313 51.2565 35.9164 50.9925 35.7185 50.7961C35.5206 50.5997 35.2545 50.4857 34.9747 50.4775Z" fill="#A8ABFF"/>
<path d="M35.37 22.0471C33.6861 22.0514 32.0413 22.5508 30.6433 23.4823C29.2453 24.4137 28.1568 25.7354 27.5155 27.2803C26.8741 28.8252 26.7085 30.5241 27.0397 32.1624C27.3708 33.8006 28.1839 35.3047 29.3761 36.4847C30.5683 37.6647 32.0862 38.4676 33.7381 38.792C35.3899 39.1164 37.1016 38.9477 38.6569 38.3073C40.2122 37.6669 41.5414 36.5835 42.4764 35.1939C43.4115 33.8043 43.9106 32.1709 43.9106 30.5C43.9091 29.3885 43.6871 28.2882 43.2571 27.2619C42.8271 26.2356 42.1976 25.3033 41.4046 24.5184C40.6115 23.7335 39.6704 23.1112 38.635 22.6872C37.5995 22.2632 36.4901 22.0457 35.37 22.0471ZM35.37 36.8505C34.1019 36.8613 32.8592 36.4981 31.7995 35.8068C30.7399 35.1156 29.911 34.1276 29.4182 32.9682C28.9254 31.8088 28.7908 30.5302 29.0315 29.2948C29.2722 28.0593 29.8774 26.9227 30.7702 26.0291C31.663 25.1355 32.8033 24.5252 34.0462 24.2758C35.2891 24.0263 36.5788 24.1488 37.7514 24.6278C38.924 25.1068 39.9268 25.9207 40.6325 26.9662C41.3382 28.0117 41.715 29.2417 41.7151 30.5C41.7123 32.174 41.0446 33.7794 39.8568 34.9682C38.6691 36.157 37.0569 36.8333 35.37 36.8505Z" fill="#A8ABFF"/>
<path d="M49.7836 25.9467C49.5245 25.9175 49.2781 25.82 49.07 25.6643C48.8618 25.5086 48.6994 25.3004 48.5997 25.0614C48.5 24.8224 48.4666 24.5612 48.5029 24.3051C48.5393 24.0489 48.6442 23.8071 48.8066 23.6048C49.3683 22.9277 49.6559 22.0674 49.6133 21.1914C49.5707 20.3154 49.2009 19.4866 48.576 18.8664L47.0831 17.4285C46.4594 16.8069 45.6249 16.438 44.7421 16.3937C43.8593 16.3494 42.9915 16.6329 42.3078 17.1889C42.1061 17.3546 41.8627 17.4625 41.6038 17.501C41.3448 17.5395 41.0802 17.5071 40.8385 17.4073C40.5967 17.3075 40.387 17.1442 40.232 16.9348C40.0769 16.7255 39.9824 16.4781 39.9586 16.2194C39.8713 15.3469 39.4599 14.5379 38.8044 13.9499C38.149 13.362 37.2964 13.0371 36.4128 13.0387H34.3161C33.432 13.0282 32.5756 13.3448 31.9139 13.9268C31.2523 14.5088 30.8328 15.3145 30.7374 16.1867C30.7136 16.4455 30.6191 16.6928 30.464 16.9022C30.3089 17.1115 30.0992 17.2749 29.8575 17.3746C29.6157 17.4744 29.3511 17.5068 29.0922 17.4683C28.8333 17.4298 28.5898 17.3219 28.3882 17.1562C27.7055 16.5978 26.8372 16.3129 25.9537 16.3572C25.0702 16.4015 24.2353 16.772 23.6129 17.3958L22.1309 18.8664C21.5117 19.4923 21.1504 20.3252 21.1179 21.2018C21.0854 22.0784 21.384 22.9354 21.9553 23.6048C22.1203 23.8062 22.2278 24.048 22.2664 24.3048C22.305 24.5616 22.2734 24.8239 22.1748 25.0644C22.0757 25.3059 21.9117 25.5159 21.7008 25.6714C21.4898 25.827 21.2399 25.9222 20.9783 25.9467C20.0971 26.0285 19.2789 26.4354 18.6854 27.0868C18.0918 27.7383 17.7662 28.587 17.7728 29.4651V31.5892C17.7662 32.4674 18.0918 33.3161 18.6854 33.9676C19.2789 34.619 20.0971 35.0258 20.9783 35.1076C21.2399 35.1322 21.4898 35.2274 21.7008 35.3829C21.9117 35.5385 22.0757 35.7484 22.1748 35.99C22.2734 36.2305 22.305 36.4928 22.2664 36.7496C22.2278 37.0064 22.1203 37.2481 21.9553 37.4496C21.3926 38.127 21.1054 38.9886 21.1501 39.8653C21.1947 40.742 21.5681 41.5704 22.1968 42.188L23.6458 43.5714C24.2682 44.1952 25.1031 44.5657 25.9866 44.61C26.8702 44.6544 27.7385 44.3694 28.4211 43.811C28.6212 43.6418 28.8651 43.5317 29.1252 43.4931C29.3852 43.4546 29.6509 43.4893 29.8921 43.5932C30.1342 43.6921 30.3441 43.8552 30.499 44.0646C30.6539 44.274 30.7478 44.5217 30.7703 44.7805C30.8576 45.653 31.269 46.462 31.9245 47.05C32.5799 47.638 33.4325 47.9628 34.3161 47.9612H36.4128C37.2964 47.9628 38.149 47.638 38.8044 47.05C39.4599 46.462 39.8713 45.653 39.9586 44.7805C39.9833 44.5209 40.0793 44.2729 40.236 44.0636C40.3928 43.8542 40.6044 43.6916 40.8478 43.5932C41.0878 43.4927 41.3511 43.4599 41.6087 43.4984C41.8663 43.5368 42.1082 43.645 42.3078 43.811C42.9915 44.367 43.8593 44.6505 44.7421 44.6062C45.6249 44.5619 46.4594 44.193 47.0831 43.5714L48.576 42.1008C49.2009 41.4806 49.5707 40.6518 49.6133 39.7758C49.6559 38.8998 49.3683 38.0395 48.8066 37.3625C48.6492 37.1655 48.5471 36.9309 48.5104 36.6822C48.4738 36.4336 48.504 36.1797 48.598 35.9464C48.6942 35.705 48.8559 35.4948 49.0652 35.339C49.2745 35.1833 49.5231 35.0881 49.7836 35.0641C50.6583 34.9831 51.4715 34.5829 52.0658 33.9409C52.66 33.2989 52.9929 32.4609 53 31.5892V29.5196C53.0177 28.6311 52.6959 27.7688 52.0993 27.1061C51.5026 26.4433 50.6753 26.0291 49.7836 25.9467ZM50.8813 31.5348C50.8856 31.8906 50.7547 32.235 50.5147 32.4995C50.2747 32.7639 49.9431 32.9289 49.586 32.9617C48.9464 33.0295 48.3372 33.2676 47.8229 33.6507C47.3085 34.0339 46.9081 34.5479 46.664 35.1383C46.4199 35.7288 46.3412 36.3738 46.4362 37.005C46.5312 37.6362 46.7965 38.2302 47.2038 38.7241C47.4306 38.9986 47.5461 39.3471 47.5279 39.7016C47.5096 40.0561 47.3588 40.3911 47.105 40.6412L45.6231 42.1226C45.3678 42.3737 45.0275 42.5216 44.6685 42.5378C44.3094 42.5539 43.9571 42.437 43.68 42.2098C43.1807 41.808 42.5813 41.5475 41.9451 41.4558C41.3089 41.3642 40.6596 41.4449 40.0658 41.6893C39.472 41.9336 38.9557 42.3327 38.5716 42.8442C38.1876 43.3558 37.9499 43.9608 37.8838 44.5953C37.8509 44.9507 37.6849 45.2809 37.4187 45.5208C37.1525 45.7608 36.8054 45.8931 36.4458 45.8916H34.3161C33.966 45.8797 33.6323 45.7415 33.3776 45.5028C33.1229 45.2642 32.9648 44.9415 32.9329 44.5953C32.8668 43.9608 32.6292 43.3558 32.2451 42.8442C31.861 42.3327 31.3448 41.9336 30.751 41.6893C30.1572 41.4449 29.5078 41.3642 28.8716 41.4558C28.2354 41.5475 27.636 41.808 27.1367 42.2098C26.8596 42.437 26.5074 42.5539 26.1483 42.5378C25.7892 42.5216 25.449 42.3737 25.1937 42.1226L23.7117 40.6412C23.4579 40.3911 23.3071 40.0561 23.2889 39.7016C23.2706 39.3471 23.3861 38.9986 23.6129 38.7241C24.0208 38.2287 24.2859 37.6329 24.3798 37.0001C24.4738 36.3672 24.3932 35.7209 24.1466 35.1299C23.9 34.5388 23.4967 34.0251 22.9794 33.6433C22.4621 33.2616 21.8502 33.026 21.2088 32.9617C20.8521 32.9403 20.5162 32.7879 20.2666 32.5342C20.017 32.2804 19.8715 31.9436 19.8586 31.5892V29.5196C19.8568 29.1644 19.9886 28.8214 20.2281 28.5575C20.4676 28.2936 20.7978 28.1279 21.1539 28.0926C21.7953 28.0283 22.4072 27.7928 22.9245 27.411C23.4418 27.0293 23.8452 26.5156 24.0918 25.9245C24.3383 25.3335 24.4189 24.6872 24.325 24.0543C24.231 23.4214 23.9659 22.8257 23.558 22.3303C23.3312 22.0558 23.2157 21.7073 23.234 21.3528C23.2522 20.9983 23.403 20.6633 23.6568 20.4132L25.1388 18.9317C25.3941 18.6807 25.7343 18.5327 26.0934 18.5166C26.4525 18.5005 26.8048 18.6174 27.0818 18.8446C27.5842 19.2631 28.1931 19.536 28.8417 19.6334C29.4902 19.7308 30.1533 19.649 30.758 19.3968C31.3627 19.1446 31.8856 18.7319 32.2693 18.2041C32.653 17.6762 32.8826 17.0535 32.9329 16.4046C32.9659 16.0492 33.1318 15.719 33.398 15.4791C33.6642 15.2391 34.0113 15.1068 34.371 15.1083H36.4677C36.8273 15.1068 37.1745 15.2391 37.4407 15.4791C37.7069 15.719 37.8728 16.0492 37.9058 16.4046C37.9741 17.0392 38.2134 17.6439 38.5988 18.1549C38.9841 18.666 39.5011 19.0645 40.0954 19.3087C40.6897 19.5528 41.3393 19.6335 41.9759 19.5422C42.6125 19.451 43.2126 19.1912 43.7129 18.7901C43.9883 18.5637 44.3387 18.4472 44.6959 18.4633C45.0532 18.4794 45.3915 18.627 45.645 18.8773L47.127 20.3587C47.3776 20.6116 47.5244 20.9481 47.5386 21.3025C47.5528 21.657 47.4335 22.004 47.2038 22.2759C46.7959 22.7712 46.5309 23.367 46.4369 23.9998C46.3429 24.6327 46.4235 25.279 46.6701 25.8701C46.9167 26.4611 47.3201 26.9748 47.8374 27.3566C48.3546 27.7383 48.9665 27.9739 49.6079 28.0382C49.965 28.071 50.2966 28.236 50.5366 28.5005C50.7767 28.7649 50.9076 29.1093 50.9033 29.4651L50.8813 31.5348Z" fill="#FAA4AD"/>
<path d="M12.4925 18.4416C12.2863 18.2444 12.0105 18.1349 11.7241 18.1366C11.5584 18.1429 11.3962 18.1863 11.2498 18.2636C11.1034 18.341 10.9766 18.4503 10.8788 18.5832L7.05862 22.3522C6.86719 22.5542 6.76062 22.821 6.76062 23.0983C6.76062 23.3756 6.86719 23.6425 7.05862 23.8445C7.15561 23.943 7.27183 24.0209 7.40018 24.0733C7.52853 24.1257 7.66631 24.1517 7.80509 24.1495C7.94379 24.151 8.08138 24.1248 8.20964 24.0724C8.3379 24.02 8.45419 23.9425 8.55157 23.8445L10.6373 21.7857V37.2318C10.7005 37.4626 10.8385 37.6663 11.0299 37.8115C11.2214 37.9567 11.4557 38.0354 11.6967 38.0354C11.9377 38.0354 12.1719 37.9567 12.3634 37.8115C12.5548 37.6663 12.6928 37.4626 12.756 37.2318V21.6877L14.8527 23.7573C15.0557 23.9441 15.3224 24.0479 15.5992 24.0479C15.8761 24.0479 16.1427 23.9441 16.3457 23.7573C16.5371 23.5553 16.6437 23.2885 16.6437 23.0112C16.6437 22.7339 16.5371 22.467 16.3457 22.265L12.4925 18.4416Z" fill="#A8ABFF"/>
<path d="M14.5234 53.473C14.5234 54.2012 14.7411 54.9131 15.1488 55.5185C15.5565 56.124 16.136 56.5959 16.814 56.8746C17.4919 57.1532 18.238 57.2262 18.9577 57.0841C19.6775 56.942 20.3386 56.5914 20.8576 56.0765C21.3765 55.5616 21.7299 54.9055 21.873 54.1913C22.0162 53.4771 21.9427 52.7368 21.6619 52.0641C21.381 51.3913 20.9055 50.8163 20.2953 50.4118C19.6851 50.0072 18.9677 49.7913 18.2339 49.7913C17.2507 49.7941 16.3086 50.183 15.6134 50.8728C14.9182 51.5627 14.5263 52.4975 14.5234 53.473ZM18.2339 51.8936C18.5487 51.8936 18.8564 51.9862 19.1182 52.1598C19.38 52.3333 19.584 52.58 19.7045 52.8686C19.8249 53.1572 19.8565 53.4748 19.795 53.7812C19.7336 54.0876 19.582 54.369 19.3594 54.5899C19.1368 54.8108 18.8532 54.9612 18.5444 55.0222C18.2356 55.0831 17.9156 55.0518 17.6247 54.9323C17.3339 54.8127 17.0853 54.6103 16.9104 54.3505C16.7355 54.0908 16.6421 53.7854 16.6421 53.473C16.6421 53.0541 16.8098 52.6524 17.1083 52.3562C17.4068 52.06 17.8117 51.8936 18.2339 51.8936Z" fill="#A8ABFF"/>
<path d="M16.642 9.24802C16.642 8.95912 16.5264 8.68206 16.3205 8.47778C16.1146 8.27349 15.8354 8.15873 15.5443 8.15873H6.66336C6.50055 8.11483 6.32974 8.10875 6.16418 8.14097C5.99862 8.1732 5.84278 8.24285 5.70875 8.34453C5.57471 8.4462 5.4661 8.57716 5.39135 8.72724C5.3166 8.87732 5.27771 9.04248 5.27771 9.20989C5.27771 9.3773 5.3166 9.54246 5.39135 9.69254C5.4661 9.84262 5.57471 9.97358 5.70875 10.0753C5.84278 10.1769 5.99862 10.2466 6.16418 10.2788C6.32974 10.311 6.50055 10.305 6.66336 10.2611H15.5882C15.8588 10.2509 16.1162 10.1419 16.3107 9.95491C16.5053 9.7679 16.6233 9.51613 16.642 9.24802Z" fill="#A8ABFF"/>
<path d="M22.1199 8.20231C21.8874 8.26502 21.6821 8.40192 21.5357 8.59189C21.3894 8.78186 21.3101 9.01434 21.3101 9.25347C21.3101 9.4926 21.3894 9.72508 21.5357 9.91505C21.6821 10.105 21.8874 10.2419 22.1199 10.3046H25.4132C25.576 10.3485 25.7468 10.3546 25.9124 10.3224C26.078 10.2902 26.2338 10.2205 26.3678 10.1188C26.5019 10.0172 26.6105 9.8862 26.6852 9.73612C26.76 9.58604 26.7989 9.42088 26.7989 9.25347C26.7989 9.08606 26.76 8.9209 26.6852 8.77082C26.6105 8.62074 26.5019 8.48978 26.3678 8.38811C26.2338 8.28643 26.078 8.21677 25.9124 8.18455C25.7468 8.15233 25.576 8.15841 25.4132 8.20231H22.1199Z" fill="#A8ABFF"/>
</g>
<defs>
<clipPath id="clip0_38_81">
<rect width="53" height="61" fill="white"/>
</clipPath>
</defs>
</svg>
