<svg width="62" height="62" viewBox="0 0 62 62" fill="none" xmlns="http://www.w3.org/2000/svg">
<g clip-path="url(#clip0_38_59)">
<path d="M38.8275 14.8658C38.974 14.8652 39.1189 14.8355 39.2538 14.7785C39.3888 14.7214 39.511 14.6382 39.6136 14.5335L42.7468 11.3986C42.953 11.1911 43.0687 10.9103 43.0687 10.6177C43.0687 10.325 42.953 10.0442 42.7468 9.8367C42.6439 9.73287 42.5214 9.65046 42.3865 9.59423C42.2516 9.53799 42.1069 9.50903 41.9607 9.50903C41.8146 9.50903 41.6699 9.53799 41.5349 9.59423C41.4 9.65046 41.2776 9.73287 41.1746 9.8367L38.0414 12.9716C37.8352 13.1791 37.7195 13.4599 37.7195 13.7525C37.7195 14.0452 37.8352 14.326 38.0414 14.5335C38.144 14.6382 38.2662 14.7214 38.4012 14.7785C38.5361 14.8355 38.681 14.8652 38.8275 14.8658Z" fill="#A8ABFF"/>
<path d="M50.5743 19.2303L47.4411 22.3652C47.2326 22.5723 47.1149 22.8538 47.1139 23.1478C47.1129 23.4417 47.2286 23.7241 47.4356 23.9327C47.6426 24.1413 47.9239 24.259 48.2177 24.2601C48.5115 24.2611 48.7937 24.1453 49.0022 23.9382L52.1354 20.8033C52.2392 20.7003 52.3215 20.5778 52.3778 20.4428C52.434 20.3078 52.4629 20.1631 52.4629 20.0168C52.4629 19.8706 52.434 19.7258 52.3778 19.5908C52.3215 19.4558 52.2392 19.3333 52.1354 19.2303C51.928 19.024 51.6474 18.9082 51.3549 18.9082C51.0624 18.9082 50.7818 19.024 50.5743 19.2303Z" fill="#A8ABFF"/>
<path d="M11.4258 42.7365L14.559 39.6016C14.7404 39.3897 14.8351 39.1171 14.8244 38.8383C14.8136 38.5595 14.6981 38.295 14.5009 38.0978C14.3038 37.9005 14.0394 37.7849 13.7608 37.7741C13.4822 37.7634 13.2097 37.8582 12.9979 38.0397L9.86471 41.1635C9.65623 41.3706 9.53852 41.6521 9.53748 41.9461C9.53644 42.24 9.65216 42.5224 9.85917 42.7309C10.0662 42.9395 10.3475 43.0573 10.6413 43.0583C10.9351 43.0594 11.2173 42.9436 11.4258 42.7365Z" fill="#A8ABFF"/>
<path d="M22.3864 47.4333L19.2532 50.5682C19.1507 50.6715 19.0695 50.794 19.0144 50.9286C18.9592 51.0633 18.931 51.2075 18.9315 51.3531C18.932 51.4986 18.9612 51.6427 19.0173 51.7769C19.0735 51.9112 19.1555 52.0331 19.2587 52.1357C19.362 52.2382 19.4844 52.3194 19.619 52.3747C19.7536 52.4299 19.8977 52.458 20.0432 52.4575C20.1887 52.457 20.3326 52.4278 20.4668 52.3717C20.601 52.3155 20.7229 52.2334 20.8254 52.1301L23.9586 49.0063C24.167 48.7977 24.2842 48.5148 24.2842 48.2198C24.2842 47.9248 24.167 47.6419 23.9586 47.4333C23.7501 47.2247 23.4673 47.1075 23.1725 47.1075C22.8777 47.1075 22.5949 47.2247 22.3864 47.4333Z" fill="#A8ABFF"/>
<path d="M47.4411 38.0397C47.2349 38.2472 47.1191 38.528 47.1191 38.8206C47.1191 39.1133 47.2349 39.394 47.4411 39.6016L50.5743 42.7365C50.6775 42.839 50.7999 42.9202 50.9345 42.9754C51.0691 43.0307 51.2133 43.0588 51.3588 43.0583C51.5042 43.0578 51.6482 43.0286 51.7824 42.9724C51.9166 42.9163 52.0384 42.8342 52.1409 42.7309C52.2434 42.6276 52.3246 42.5052 52.3798 42.3705C52.435 42.2358 52.4631 42.0916 52.4626 41.946C52.4621 41.8005 52.4329 41.6565 52.3768 41.5222C52.3206 41.3879 52.2386 41.266 52.1354 41.1635L49.0022 38.0397C48.7947 37.8333 48.5141 37.7175 48.2216 37.7175C47.9291 37.7175 47.6485 37.8333 47.4411 38.0397Z" fill="#6653E8"/>
<path d="M39.6136 47.4333C39.4051 47.2247 39.1223 47.1075 38.8275 47.1075C38.5327 47.1075 38.2499 47.2247 38.0414 47.4333C37.8329 47.6419 37.7158 47.9248 37.7158 48.2198C37.7158 48.5148 37.8329 48.7977 38.0414 49.0063L41.1746 52.1301C41.2771 52.2334 41.399 52.3155 41.5332 52.3717C41.6674 52.4278 41.8113 52.457 41.9568 52.4575C42.1023 52.458 42.2464 52.4299 42.381 52.3747C42.5156 52.3194 42.638 52.2382 42.7412 52.1357C42.8445 52.0331 42.9265 51.9112 42.9826 51.7769C43.0388 51.6427 43.068 51.4986 43.0685 51.3531C43.069 51.2075 43.0408 51.0633 42.9856 50.9286C42.9304 50.794 42.8493 50.6715 42.7468 50.5682L39.6136 47.4333Z" fill="#A8ABFF"/>
<path d="M22.3864 14.5335C22.489 14.6382 22.6113 14.7214 22.7462 14.7785C22.8811 14.8355 23.026 14.8652 23.1725 14.8658C23.319 14.8652 23.4639 14.8355 23.5988 14.7785C23.7338 14.7214 23.856 14.6382 23.9586 14.5335C24.1648 14.326 24.2805 14.0452 24.2805 13.7525C24.2805 13.4599 24.1648 13.1791 23.9586 12.9716L20.8254 9.8367C20.7224 9.73287 20.6 9.65046 20.4651 9.59423C20.3302 9.53799 20.1855 9.50903 20.0393 9.50903C19.8931 9.50903 19.7484 9.53799 19.6135 9.59423C19.4786 9.65046 19.3561 9.73287 19.2532 9.8367C19.047 10.0442 18.9313 10.325 18.9313 10.6177C18.9313 10.9103 19.047 11.1911 19.2532 11.3986L22.3864 14.5335Z" fill="#A8ABFF"/>
<path d="M13.7728 24.2594C13.9927 24.2607 14.208 24.1965 14.3913 24.0748C14.5745 23.9532 14.7174 23.7797 14.8018 23.5765C14.8861 23.3733 14.908 23.1496 14.8648 22.9338C14.8215 22.7181 14.715 22.5202 14.5589 22.3652L11.4257 19.2303C11.2182 19.024 10.9376 18.9082 10.6451 18.9082C10.3526 18.9082 10.072 19.024 9.8646 19.2303C9.76083 19.3333 9.67846 19.4558 9.62226 19.5908C9.56605 19.7258 9.53711 19.8706 9.53711 20.0168C9.53711 20.1631 9.56605 20.3078 9.62226 20.4428C9.67846 20.5778 9.76083 20.7003 9.8646 20.8033L12.9978 23.9382C13.204 24.1429 13.4824 24.2582 13.7728 24.2594Z" fill="#A8ABFF"/>
<path d="M30.214 20.8033L20.8254 30.1969C20.7216 30.2998 20.6393 30.4223 20.5831 30.5573C20.5269 30.6923 20.4979 30.8371 20.4979 30.9833C20.4979 31.1296 20.5269 31.2744 20.5831 31.4094C20.6393 31.5443 20.7216 31.6669 20.8254 31.7698L30.214 41.1634C30.3169 41.2673 30.4394 41.3497 30.5743 41.4059C30.7092 41.4622 30.8539 41.4911 31.0001 41.4911C31.1462 41.4911 31.2909 41.4622 31.4258 41.4059C31.5608 41.3497 31.6832 41.2673 31.7861 41.1634L41.1747 31.7698C41.2785 31.6669 41.3608 31.5443 41.417 31.4094C41.4733 31.2744 41.5022 31.1296 41.5022 30.9833C41.5022 30.8371 41.4733 30.6923 41.417 30.5573C41.3608 30.4223 41.2785 30.2998 41.1747 30.1969L31.7861 20.8033C31.6832 20.6994 31.5608 20.617 31.4258 20.5608C31.2909 20.5045 31.1462 20.4756 31.0001 20.4756C30.8539 20.4756 30.7092 20.5045 30.5743 20.5608C30.4394 20.617 30.3169 20.6994 30.214 20.8033ZM38.8276 31.0166L31.0001 38.7707L23.1726 31.0166L31.0001 23.1517L38.8276 31.0166Z" fill="#FAA4AD"/>
<path d="M61.0257 28.635C60.3921 28.0335 59.552 27.6982 58.6786 27.6982C57.8052 27.6982 56.965 28.0335 56.3314 28.635C55.9862 28.9874 55.7218 29.4108 55.5564 29.8757H50.2422L41.9607 21.5898L49.1461 14.4006C49.8531 14.7368 50.6562 14.8124 51.4135 14.6139C52.1708 14.4155 52.8337 13.9557 53.2853 13.3158C53.7368 12.6759 53.9479 11.8971 53.8813 11.1166C53.8148 10.3362 53.4748 9.60431 52.9214 9.05023C52.2878 8.44872 51.4477 8.11339 50.5743 8.11339C49.7009 8.11339 48.8608 8.44872 48.2272 9.05023C47.7472 9.53906 47.43 10.1644 47.319 10.8406C47.208 11.5168 47.3086 12.2109 47.6072 12.8276L40.4218 20.0168L32.1072 11.7309V6.41381C32.5729 6.25072 32.9965 5.98583 33.3472 5.6384C33.9692 5.0153 34.3185 4.17065 34.3185 3.29C34.3185 2.40934 33.9692 1.5647 33.3472 0.941597C32.7136 0.340088 31.8734 0.00476074 31 0.00476074C30.1266 0.00476074 29.2865 0.340088 28.6529 0.941597C28.0309 1.5647 27.6815 2.40934 27.6815 3.29C27.6815 4.17065 28.0309 5.0153 28.6529 5.6384C29.0035 5.98583 29.4271 6.25072 29.8929 6.41381V11.7309L21.6004 20.0168L14.3929 12.8276C14.6886 12.2087 14.7857 11.5133 14.6707 10.837C14.5557 10.1607 14.2344 9.53653 13.7507 9.05023C13.1171 8.44872 12.277 8.11339 11.4036 8.11339C10.5302 8.11339 9.69003 8.44872 9.05644 9.05023C8.49338 9.60402 8.14591 10.3404 8.07633 11.1273C8.00676 11.9142 8.21964 12.7002 8.67679 13.3443C9.13394 13.9884 9.80547 14.4484 10.571 14.642C11.3364 14.8356 12.1458 14.75 12.8539 14.4006L20.0393 21.6009L11.7579 29.9089H6.44358C6.27827 29.444 6.01382 29.0206 5.66858 28.6682C5.03499 28.0667 4.19486 27.7314 3.32144 27.7314C2.44802 27.7314 1.60789 28.0667 0.974295 28.6682C0.510374 29.133 0.194509 29.7249 0.066592 30.3691C-0.0613246 31.0134 0.00444566 31.6811 0.255596 32.288C0.506746 32.8949 0.932012 33.4137 1.47768 33.7789C2.02335 34.1441 2.66495 34.3393 3.32144 34.3398C4.0067 34.3379 4.67459 34.124 5.23355 33.7273C5.7925 33.3307 6.21516 32.7708 6.44358 32.1244H11.7579L20.0393 40.4213L12.8429 47.6327C12.224 47.3503 11.5349 47.2596 10.8642 47.3721C10.1934 47.4846 9.57154 47.7952 9.07858 48.2641C8.45659 48.8872 8.10722 49.7318 8.10722 50.6125C8.10722 51.4931 8.45659 52.3378 9.07858 52.9609C9.63721 53.5041 10.3689 53.8336 11.1457 53.8917C11.9226 53.9499 12.6951 53.733 13.3283 53.2789C13.9615 52.8249 14.415 52.1627 14.6096 51.408C14.8042 50.6533 14.7275 49.8541 14.3929 49.1503L21.5782 41.95L29.8929 50.2469V55.5751C29.4273 55.7279 29.0031 55.9856 28.6529 56.3284C28.0309 56.9515 27.6815 57.7962 27.6815 58.6768C27.6815 59.5575 28.0309 60.4021 28.6529 61.0252C29.2825 61.6122 30.1153 61.9318 30.9758 61.9166C31.8362 61.9014 32.6572 61.5526 33.2658 60.9438C33.8743 60.3349 34.2229 59.5135 34.2381 58.6525C34.2533 57.7916 33.9339 56.9584 33.3472 56.3284C32.9969 55.9856 32.5727 55.7279 32.1072 55.5751V50.2469L40.3997 41.95L47.6072 49.1503C47.3139 49.7679 47.2183 50.461 47.3332 51.135C47.4481 51.809 47.768 52.4312 48.2493 52.9166C48.8721 53.5389 49.7163 53.8885 50.5964 53.8885C51.4766 53.8885 52.3208 53.5389 52.9436 52.9166C53.5656 52.2935 53.915 51.4488 53.915 50.5682C53.915 49.6875 53.5656 48.8429 52.9436 48.2198C52.4439 47.7537 51.8157 47.4485 51.1406 47.3438C50.4654 47.2391 49.7745 47.3398 49.1572 47.6327L41.9607 40.4324L50.2422 32.1244H55.5564C55.7444 32.6515 56.0624 33.1226 56.4809 33.4939C56.8994 33.8652 57.4048 34.1248 57.9503 34.2486C58.4958 34.3723 59.0637 34.3562 59.6014 34.2018C60.139 34.0473 60.6289 33.7595 61.0257 33.365C61.6477 32.7419 61.9971 31.8973 61.9971 31.0166C61.9971 30.136 61.6477 29.2913 61.0257 28.6682V28.635ZM49.8214 10.6232C49.924 10.5185 50.0463 10.4353 50.1812 10.3782C50.3161 10.3212 50.461 10.2915 50.6075 10.2909C50.8995 10.2951 51.1781 10.4145 51.3825 10.6232C51.5887 10.8308 51.7045 11.1115 51.7045 11.4042C51.7045 11.6968 51.5887 11.9776 51.3825 12.1851C51.1751 12.3914 50.8945 12.5072 50.602 12.5072C50.3095 12.5072 50.0289 12.3914 49.8214 12.1851C49.6152 11.9776 49.4995 11.6968 49.4995 11.4042C49.4995 11.1115 49.6152 10.8308 49.8214 10.6232ZM10.6507 12.1851C10.4445 11.9776 10.3288 11.6968 10.3288 11.4042C10.3288 11.1115 10.4445 10.8308 10.6507 10.6232C10.8551 10.4145 11.1337 10.2951 11.4257 10.2909C11.5722 10.2915 11.7171 10.3212 11.852 10.3782C11.987 10.4353 12.1093 10.5185 12.2118 10.6232C12.4137 10.8351 12.5235 11.1184 12.5172 11.411C12.511 11.7037 12.3893 11.982 12.1786 12.1851C11.9727 12.3815 11.6991 12.4911 11.4147 12.4911C11.1302 12.4911 10.8566 12.3815 10.6507 12.1851ZM12.1786 51.3547C11.9711 51.561 11.6905 51.6768 11.398 51.6768C11.1056 51.6768 10.8249 51.561 10.6175 51.3547C10.5137 51.2517 10.4314 51.1292 10.3752 50.9942C10.319 50.8592 10.29 50.7144 10.29 50.5682C10.29 50.4219 10.319 50.2772 10.3752 50.1422C10.4314 50.0072 10.5137 49.8847 10.6175 49.7817C10.8237 49.577 11.1021 49.4617 11.3925 49.4604C11.5382 49.4596 11.6827 49.4875 11.8175 49.5427C11.9524 49.5978 12.0751 49.679 12.1786 49.7817C12.2824 49.8847 12.3647 50.0072 12.4209 50.1422C12.4771 50.2772 12.5061 50.4219 12.5061 50.5682C12.5061 50.7144 12.4771 50.8592 12.4209 50.9942C12.3647 51.1292 12.2824 51.2517 12.1786 51.3547ZM50.5411 49.4604C50.8315 49.4617 51.1099 49.577 51.3161 49.7817C51.4199 49.8847 51.5022 50.0072 51.5584 50.1422C51.6146 50.2772 51.6436 50.4219 51.6436 50.5682C51.6436 50.7144 51.6146 50.8592 51.5584 50.9942C51.5022 51.1292 51.4199 51.2517 51.3161 51.3547C51.2222 51.4895 51.0995 51.6017 50.9569 51.6832C50.8143 51.7647 50.6553 51.8135 50.4915 51.8259C50.3278 51.8383 50.1633 51.8142 50.01 51.7551C49.8567 51.6961 49.7185 51.6037 49.6053 51.4846C49.4922 51.3655 49.4069 51.2227 49.3557 51.0666C49.3045 50.9104 49.2887 50.7448 49.3094 50.5818C49.3301 50.4188 49.3868 50.2624 49.4753 50.124C49.5639 49.9856 49.6821 49.8687 49.8214 49.7817C50.0222 49.5823 50.2915 49.4674 50.5743 49.4604H50.5411ZM30.2139 2.50351C30.3169 2.39968 30.4393 2.31727 30.5742 2.26103C30.7091 2.20479 30.8539 2.17584 31 2.17584C31.1462 2.17584 31.2909 2.20479 31.4258 2.26103C31.5607 2.31727 31.6832 2.39968 31.7861 2.50351C31.8899 2.60648 31.9722 2.729 32.0284 2.86399C32.0846 2.99898 32.1136 3.14376 32.1136 3.29C32.1136 3.43623 32.0846 3.58102 32.0284 3.71601C31.9722 3.851 31.8899 3.97351 31.7861 4.07649C31.6832 4.18032 31.5607 4.26273 31.4258 4.31896C31.2909 4.3752 31.1462 4.40416 31 4.40416C30.8539 4.40416 30.7091 4.3752 30.5742 4.31896C30.4393 4.26273 30.3169 4.18032 30.2139 4.07649C30.1102 3.97351 30.0278 3.851 29.9716 3.71601C29.9154 3.58102 29.8864 3.43623 29.8864 3.29C29.8864 3.14376 29.9154 2.99898 29.9716 2.86399C30.0278 2.729 30.1102 2.60648 30.2139 2.50351ZM4.10751 31.7699C4.00459 31.8737 3.88214 31.9561 3.74722 32.0124C3.6123 32.0686 3.46759 32.0976 3.32144 32.0976C3.17528 32.0976 3.03057 32.0686 2.89566 32.0124C2.76074 31.9561 2.63829 31.8737 2.53537 31.7699C2.4316 31.6669 2.34923 31.5444 2.29302 31.4094C2.23681 31.2744 2.20788 31.1296 2.20788 30.9834C2.20788 30.8372 2.23681 30.6924 2.29302 30.5574C2.34923 30.4224 2.4316 30.2999 2.53537 30.1969C2.63829 30.0931 2.76074 30.0107 2.89566 29.9544C3.03057 29.8982 3.17528 29.8692 3.32144 29.8692C3.46759 29.8692 3.6123 29.8982 3.74722 29.9544C3.88214 30.0107 4.00459 30.0931 4.10751 30.1969C4.21128 30.2999 4.29365 30.4224 4.34985 30.5574C4.40606 30.6924 4.435 30.8372 4.435 30.9834C4.435 31.1296 4.40606 31.2744 4.34985 31.4094C4.29365 31.5444 4.21128 31.6669 4.10751 31.7699ZM31.7861 59.4633C31.6832 59.5671 31.5607 59.6495 31.4258 59.7058C31.2909 59.762 31.1462 59.791 31 59.791C30.8539 59.791 30.7091 59.762 30.5742 59.7058C30.4393 59.6495 30.3169 59.5671 30.2139 59.4633C30.1102 59.3603 30.0278 59.2378 29.9716 59.1028C29.9154 58.9678 29.8864 58.823 29.8864 58.6768C29.8864 58.5306 29.9154 58.3858 29.9716 58.2508C30.0278 58.1158 30.1102 57.9933 30.2139 57.8903C30.3169 57.7865 30.4393 57.7041 30.5742 57.6478C30.7091 57.5916 30.8539 57.5626 31 57.5626C31.1462 57.5626 31.2909 57.5916 31.4258 57.6478C31.5607 57.7041 31.6832 57.7865 31.7861 57.8903C31.8899 57.9933 31.9722 58.1158 32.0284 58.2508C32.0846 58.3858 32.1136 58.5306 32.1136 58.6768C32.1136 58.823 32.0846 58.9678 32.0284 59.1028C31.9722 59.2378 31.8899 59.3603 31.7861 59.4633ZM31 48.2198L13.7729 31.0166L31 13.747L48.2272 31.0166L31 48.2198ZM59.4647 31.7699C59.3617 31.8737 59.2393 31.9561 59.1044 32.0124C58.9695 32.0686 58.8247 32.0976 58.6786 32.0976C58.5324 32.0976 58.3877 32.0686 58.2528 32.0124C58.1179 31.9561 57.9954 31.8737 57.8925 31.7699C57.7887 31.6669 57.7064 31.5444 57.6502 31.4094C57.594 31.2744 57.565 31.1296 57.565 30.9834C57.565 30.8372 57.594 30.6924 57.6502 30.5574C57.7064 30.4224 57.7887 30.2999 57.8925 30.1969C57.9954 30.0931 58.1179 30.0107 58.2528 29.9544C58.3877 29.8982 58.5324 29.8692 58.6786 29.8692C58.8247 29.8692 58.9695 29.8982 59.1044 29.9544C59.2393 30.0107 59.3617 30.0931 59.4647 30.1969C59.5684 30.2999 59.6508 30.4224 59.707 30.5574C59.7632 30.6924 59.7921 30.8372 59.7921 30.9834C59.7921 31.1296 59.7632 31.2744 59.707 31.4094C59.6508 31.5444 59.5684 31.6669 59.4647 31.7699Z" fill="#A8ABFF"/>
</g>
<defs>
<clipPath id="clip0_38_59">
<rect width="62" height="62" fill="white"/>
</clipPath>
</defs>
</svg>
