<svg width="63" height="46" viewBox="0 0 63 46" fill="none" xmlns="http://www.w3.org/2000/svg">
<path d="M8.49374 6.55359C8.19538 6.55359 7.90923 6.67305 7.69825 6.88568C7.48727 7.09832 7.36874 7.38672 7.36874 7.68743C7.36874 7.98815 7.48727 8.27654 7.69825 8.48918C7.90923 8.70182 8.19538 8.82127 8.49374 8.82127H12.285C12.5834 8.82127 12.8695 8.70182 13.0805 8.48918C13.2915 8.27654 13.41 7.98815 13.41 7.68743C13.41 7.38672 13.2915 7.09832 13.0805 6.88568C12.8695 6.67305 12.5834 6.55359 12.285 6.55359H8.49374Z" fill="#FAA4AD"/>
<path d="M26.1337 7.68743C26.1337 7.38672 26.0152 7.09832 25.8042 6.88568C25.5933 6.67305 25.3071 6.55359 25.0087 6.55359H21.2062C20.9079 6.55359 20.6217 6.67305 20.4107 6.88568C20.1998 7.09832 20.0812 7.38672 20.0812 7.68743C20.0812 7.98815 20.1998 8.27654 20.4107 8.48918C20.6217 8.70182 20.9079 8.82127 21.2062 8.82127H25.0087C25.3071 8.82127 25.5933 8.70182 25.8042 8.48918C26.0152 8.27654 26.1337 7.98815 26.1337 7.68743Z" fill="#FAA4AD"/>
<path d="M32.9175 6.55359C32.6191 6.55359 32.333 6.67305 32.122 6.88568C31.911 7.09832 31.7925 7.38672 31.7925 7.68743C31.7925 7.98815 31.911 8.27654 32.122 8.48918C32.333 8.70182 32.6191 8.82127 32.9175 8.82127H44.7975C45.0959 8.82127 45.382 8.70182 45.593 8.48918C45.804 8.27654 45.9225 7.98815 45.9225 7.68743C45.9225 7.38672 45.804 7.09832 45.593 6.88568C45.382 6.67305 45.0959 6.55359 44.7975 6.55359H32.9175Z" fill="#FAA4AD"/>
<path d="M36.9225 32.8021H4.2975C3.75241 32.7961 3.23166 32.5737 2.84831 32.1831C2.46497 31.7924 2.24997 31.2652 2.25 30.7158V4.35396C2.25 3.80064 2.46809 3.26999 2.85629 2.87874C3.24449 2.48749 3.771 2.26769 4.32 2.26769H50.0063C50.5552 2.26769 51.0818 2.48749 51.47 2.87874C51.8582 3.26999 52.0763 3.80064 52.0763 4.35396V12.7897C52.0763 13.0905 52.1948 13.3789 52.4058 13.5915C52.6167 13.8041 52.9029 13.9236 53.2013 13.9236C53.4996 13.9236 53.7858 13.8041 53.9967 13.5915C54.2077 13.3789 54.3263 13.0905 54.3263 12.7897V4.35396C54.3233 3.20014 53.8672 2.09443 53.0577 1.27855C52.2482 0.462673 51.1511 0.00299306 50.0063 0L4.32 0C3.17426 0 2.07546 0.458719 1.2653 1.27524C0.455142 2.09177 0 3.19921 0 4.35396L0 30.7158C0 31.8705 0.455142 32.978 1.2653 33.7945C2.07546 34.611 3.17426 35.0698 4.32 35.0698H18.4837C19.5698 35.149 20.5858 35.6398 21.3274 36.4433C22.0691 37.2468 22.4813 38.3036 22.4813 39.401C22.4813 40.4985 22.0691 41.5552 21.3274 42.3588C20.5858 43.1623 19.5698 43.6531 18.4837 43.7323C18.1854 43.7323 17.8992 43.8518 17.6883 44.0644C17.4773 44.277 17.3587 44.5654 17.3587 44.8662C17.3587 45.1669 17.4773 45.4553 17.6883 45.6679C17.8992 45.8805 18.1854 46 18.4837 46H35.8425C36.1409 46 36.427 45.8805 36.638 45.6679C36.849 45.4553 36.9675 45.1669 36.9675 44.8662C36.9675 44.5654 36.849 44.277 36.638 44.0644C36.427 43.8518 36.1409 43.7323 35.8425 43.7323C34.7565 43.6531 33.7405 43.1623 32.9988 42.3588C32.2572 41.5552 31.8449 40.4985 31.8449 39.401C31.8449 38.3036 32.2572 37.2468 32.9988 36.4433C33.7405 35.6398 34.7565 35.149 35.8425 35.0698H36.9675C37.2659 35.0698 37.552 34.9503 37.763 34.7377C37.974 34.525 38.0925 34.2366 38.0925 33.9359C38.0925 33.6352 37.974 33.3468 37.763 33.1342C37.552 32.9215 37.2659 32.8021 36.9675 32.8021H36.9225ZM31.0725 43.7323H23.1975C24.1961 42.5133 24.7423 40.9818 24.7423 39.401C24.7423 37.8202 24.1961 36.2888 23.1975 35.0698H31.0725C30.0739 36.2888 29.5277 37.8202 29.5277 39.401C29.5277 40.9818 30.0739 42.5133 31.0725 43.7323Z" fill="#A8ABFF"/>
<path d="M21.51 16.4974C21.3195 16.2689 21.0474 16.1252 20.7525 16.0976C20.4577 16.07 20.1639 16.1607 19.935 16.35L16.6725 19.0826C16.5451 19.189 16.4426 19.3224 16.3722 19.4733C16.3018 19.6242 16.2653 19.7889 16.2653 19.9556C16.2653 20.1224 16.3018 20.2871 16.3722 20.438C16.4426 20.5889 16.5451 20.7223 16.6725 20.8287L19.935 23.5612C20.1374 23.7303 20.3921 23.8226 20.655 23.822C20.8184 23.8206 20.9795 23.7834 21.1271 23.7129C21.2748 23.6424 21.4054 23.5404 21.51 23.4138C21.6054 23.3 21.6775 23.1683 21.7224 23.0263C21.7672 22.8843 21.7838 22.7348 21.7713 22.5863C21.7588 22.4378 21.7173 22.2933 21.6493 22.161C21.5813 22.0286 21.4881 21.9111 21.375 21.8151L19.125 19.9556L21.375 18.1415C21.4948 18.0451 21.5938 17.9251 21.6659 17.7888C21.738 17.6525 21.7817 17.5028 21.7944 17.3488C21.807 17.1948 21.7883 17.0399 21.7394 16.8935C21.6905 16.7471 21.6124 16.6123 21.51 16.4974Z" fill="#A8ABFF"/>
<path d="M34.3912 16.35C34.1555 16.1575 33.8536 16.0673 33.5519 16.0992C33.2502 16.1311 32.9734 16.2825 32.7825 16.52C32.5915 16.7576 32.502 17.0619 32.5337 17.366C32.5653 17.67 32.7155 17.949 32.9512 18.1414L35.2012 20.0009L32.9512 21.8604C32.793 22.0136 32.6826 22.21 32.6336 22.4256C32.5847 22.6412 32.5995 22.8665 32.676 23.0738C32.7525 23.281 32.8875 23.4612 33.0643 23.5921C33.2412 23.7231 33.4521 23.799 33.6712 23.8106C33.9341 23.8112 34.1888 23.7189 34.3912 23.5499L37.6425 20.8173C37.7699 20.7109 37.8724 20.5775 37.9428 20.4266C38.0132 20.2757 38.0497 20.111 38.0497 19.9442C38.0497 19.7775 38.0132 19.6128 37.9428 19.4619C37.8724 19.311 37.7699 19.1776 37.6425 19.0712L34.3912 16.35Z" fill="#A8ABFF"/>
<path d="M25.425 25.1826C25.542 25.2172 25.6631 25.2362 25.785 25.2393C26.0222 25.2391 26.2533 25.1634 26.4453 25.0229C26.6372 24.8823 26.7802 24.6843 26.8537 24.4569L29.5987 16.1686C29.6579 16.0251 29.6873 15.8709 29.6849 15.7156C29.6825 15.5603 29.6485 15.4071 29.5849 15.2655C29.5214 15.124 29.4296 14.9971 29.3154 14.8928C29.2011 14.7885 29.0669 14.709 28.9209 14.6591C28.7748 14.6093 28.6202 14.5903 28.4666 14.6032C28.313 14.6161 28.1637 14.6606 28.0279 14.7341C27.892 14.8076 27.7727 14.9085 27.6771 15.0304C27.5816 15.1523 27.5119 15.2927 27.4725 15.4429L24.75 23.7426C24.6521 24.0239 24.6681 24.3327 24.7944 24.6022C24.9207 24.8717 25.1473 25.0802 25.425 25.1826Z" fill="#A8ABFF"/>
<path d="M60.3225 25.1486C60.2083 25.1446 60.0978 25.1076 60.0039 25.042C59.91 24.9764 59.8368 24.8851 59.7929 24.7788C59.7491 24.6725 59.7365 24.5557 59.7565 24.4424C59.7766 24.3291 59.8286 24.2239 59.9062 24.1395C60.3831 23.5873 60.6354 22.8739 60.6124 22.1422C60.5895 21.4104 60.293 20.7145 59.7825 20.1937L59.2087 19.6155C58.6921 19.1009 58.0015 18.8022 57.2755 18.779C56.5495 18.7559 55.8417 19.0101 55.2937 19.4908C55.2072 19.5667 55.1018 19.6174 54.9888 19.6374C54.8758 19.6574 54.7595 19.6459 54.6525 19.6041C54.5479 19.5584 54.4579 19.4844 54.3924 19.3904C54.3269 19.2964 54.2884 19.1859 54.2812 19.0712C54.2382 18.3403 53.9194 17.6536 53.3902 17.1519C52.861 16.6502 52.1615 16.3714 51.435 16.3727H50.625C49.8973 16.3712 49.1965 16.6496 48.6655 17.1511C48.1345 17.6525 47.8133 18.3393 47.7675 19.0712C47.7603 19.1859 47.7219 19.2964 47.6564 19.3904C47.5908 19.4844 47.5008 19.5584 47.3962 19.6041C47.2892 19.6459 47.173 19.6574 47.06 19.6374C46.947 19.6174 46.8415 19.5667 46.755 19.4908C46.2101 19.0084 45.5036 18.7528 44.7787 18.776C44.0538 18.7992 43.3647 19.0993 42.8512 19.6155L42.2775 20.1937C41.7621 20.7118 41.4623 21.4086 41.4393 22.1419C41.4163 22.8752 41.6718 23.5897 42.1537 24.1395C42.2298 24.2241 42.2799 24.3291 42.2978 24.4418C42.3158 24.5546 42.3009 24.6701 42.255 24.7745C42.2164 24.8822 42.1462 24.9757 42.0538 25.0425C41.9615 25.1093 41.8512 25.1463 41.7375 25.1486C41.0112 25.1973 40.3301 25.5214 39.8312 26.0558C39.3324 26.5901 39.0528 27.2949 39.0487 28.0286V28.845C39.0471 29.5825 39.3242 30.293 39.8236 30.8322C40.323 31.3713 41.0073 31.6986 41.7375 31.7476C41.8496 31.756 41.9571 31.7955 42.0482 31.8618C42.1393 31.9281 42.2104 32.0186 42.2535 32.1232C42.2966 32.2277 42.3101 32.3423 42.2925 32.4542C42.2749 32.566 42.2269 32.6707 42.1537 32.7567C41.6718 33.3066 41.4163 34.021 41.4393 34.7543C41.4623 35.4876 41.7621 36.1844 42.2775 36.7025L42.8512 37.2807C43.3647 37.797 44.0538 38.0971 44.7787 38.1202C45.5036 38.1434 46.2101 37.8879 46.755 37.4055C46.8415 37.3295 46.947 37.2788 47.06 37.2588C47.173 37.2388 47.2892 37.2503 47.3962 37.2921C47.5008 37.3378 47.5908 37.4118 47.6564 37.5058C47.7219 37.5999 47.7603 37.7103 47.7675 37.825C47.8188 38.5529 48.1424 39.234 48.6728 39.7307C49.2032 40.2274 49.901 40.5027 50.625 40.5009H51.435C52.1615 40.5021 52.861 40.2234 53.3902 39.7217C53.9194 39.2199 54.2382 38.5333 54.2812 37.8023C54.2884 37.6876 54.3269 37.5772 54.3924 37.4831C54.4579 37.3891 54.5479 37.3151 54.6525 37.2694C54.7595 37.2277 54.8758 37.2162 54.9888 37.2361C55.1018 37.2561 55.2072 37.3068 55.2937 37.3828C55.8386 37.8652 56.5452 38.1207 57.2701 38.0975C57.995 38.0744 58.684 37.7743 59.1975 37.2581L59.7825 36.6798C60.2939 36.1589 60.5899 35.4618 60.6108 34.7293C60.6317 33.9968 60.3758 33.2837 59.895 32.734C59.8214 32.6473 59.7734 32.5416 59.7563 32.4288C59.7392 32.3161 59.7536 32.2007 59.7981 32.0958C59.8425 31.9909 59.9152 31.9006 60.0078 31.835C60.1005 31.7695 60.2095 31.7314 60.3225 31.7249C61.0478 31.6761 61.7276 31.3516 62.2246 30.817C62.7216 30.2824 62.9988 29.5776 63 28.845V28.0286C62.9988 27.296 62.7216 26.5912 62.2246 26.0566C61.7276 25.522 61.0478 25.1975 60.3225 25.1486ZM60.75 28.845C60.7502 29.0016 60.6909 29.1524 60.5842 29.2663C60.4774 29.3802 60.3314 29.4485 60.1762 29.4572C59.6421 29.4913 59.1282 29.6759 58.6931 29.99C58.258 30.304 57.9191 30.7349 57.7151 31.2336C57.5111 31.7323 57.4502 32.2787 57.5392 32.8106C57.6282 33.3425 57.8637 33.8384 58.2187 34.242C58.3223 34.3568 58.3797 34.5064 58.3797 34.6616C58.3797 34.8167 58.3223 34.9663 58.2187 35.0811L57.645 35.6594C57.5323 35.7662 57.3834 35.8257 57.2287 35.8257C57.074 35.8257 56.9252 35.7662 56.8125 35.6594C56.4111 35.3044 55.919 35.07 55.392 34.9826C54.8651 34.8952 54.3244 34.9584 53.8313 35.165C53.3382 35.3716 52.9124 35.7133 52.6022 36.1514C52.292 36.5895 52.1098 37.1064 52.0762 37.6436C52.0649 37.798 51.9959 37.9423 51.8832 38.0475C51.7704 38.1527 51.6224 38.2109 51.4687 38.2105H50.625C50.4706 38.2137 50.321 38.1564 50.2077 38.0506C50.0944 37.9449 50.0262 37.799 50.0175 37.6436C49.9666 36.9125 49.6442 36.2276 49.1146 35.7253C48.585 35.2231 47.8871 34.9404 47.16 34.9337C46.4633 34.9353 45.7912 35.1933 45.27 35.6594C45.1573 35.7662 45.0084 35.8257 44.8537 35.8257C44.699 35.8257 44.5502 35.7662 44.4375 35.6594L43.875 35.0811C43.7682 34.9657 43.7089 34.8137 43.7089 34.6559C43.7089 34.4981 43.7682 34.3462 43.875 34.2307C44.2218 33.8234 44.4488 33.3266 44.5304 32.7962C44.612 32.2658 44.5449 31.7229 44.3367 31.2289C44.1284 30.7349 43.7874 30.3094 43.352 30.0004C42.9166 29.6913 42.4041 29.5111 41.8725 29.4799C41.7182 29.4686 41.5738 29.3995 41.4676 29.2861C41.3614 29.1728 41.3011 29.0235 41.2987 28.8676V28.0513C41.3011 27.8954 41.3614 27.7461 41.4676 27.6328C41.5738 27.5194 41.7182 27.4503 41.8725 27.439C42.4062 27.4095 42.921 27.2297 43.3584 26.92C43.7958 26.6103 44.1383 26.1832 44.3469 25.6872C44.5555 25.1911 44.6218 24.6461 44.5384 24.1139C44.455 23.5818 44.2251 23.0839 43.875 22.6769C43.7697 22.5652 43.7111 22.417 43.7111 22.263C43.7111 22.109 43.7697 21.9608 43.875 21.8491L44.4487 21.2595C44.5614 21.1527 44.7103 21.0932 44.865 21.0932C45.0197 21.0932 45.1686 21.1527 45.2812 21.2595C45.6839 21.6134 46.1766 21.8469 46.7039 21.9337C47.2311 22.0206 47.7719 21.9573 48.2654 21.751C48.7589 21.5448 49.1855 21.2037 49.497 20.7663C49.8085 20.3289 49.9927 19.8125 50.0287 19.2753C50.0375 19.1199 50.1056 18.974 50.2189 18.8683C50.3323 18.7625 50.4819 18.7052 50.6362 18.7084H51.4462C51.5999 18.708 51.7479 18.7662 51.8607 18.8714C51.9734 18.9766 52.0424 19.1209 52.0537 19.2753C52.0873 19.8125 52.2695 20.3294 52.5797 20.7675C52.8899 21.2056 53.3157 21.5473 53.8088 21.7539C54.3019 21.9605 54.8426 22.0237 55.3695 21.9363C55.8965 21.8489 56.3885 21.6145 56.79 21.2595C56.9013 21.1501 57.0507 21.0889 57.2062 21.0889C57.3618 21.0889 57.5111 21.1501 57.6225 21.2595L58.1962 21.8378C58.3022 21.9514 58.3613 22.1014 58.3613 22.2573C58.3613 22.4132 58.3022 22.5633 58.1962 22.6769C57.8441 23.0815 57.6115 23.5774 57.5248 24.1085C57.4381 24.6396 57.5008 25.1845 57.7057 25.6815C57.9107 26.1785 58.2498 26.6076 58.6844 26.9203C59.1191 27.2329 59.632 27.4165 60.165 27.4503C60.3193 27.4616 60.4637 27.5308 60.5699 27.6441C60.6761 27.7574 60.7363 27.9067 60.7387 28.0626L60.75 28.845Z" fill="#FAA4AD"/>
<path d="M51.03 23.4818C50.0545 23.4796 49.1002 23.7692 48.2882 24.3141C47.4761 24.8589 46.8428 25.6344 46.4685 26.5423C46.0941 27.4502 45.9956 28.4497 46.1854 29.4141C46.3752 30.3785 46.8447 31.2645 47.5345 31.9597C48.2243 32.6549 49.1033 33.1281 50.0602 33.3194C51.0171 33.5107 52.0088 33.4114 52.9096 33.0341C53.8105 32.6568 54.5799 32.0185 55.1205 31.2001C55.6611 30.3816 55.9485 29.4199 55.9462 28.4367C55.9433 27.1235 55.4244 25.865 54.503 24.9364C53.5817 24.0078 52.3329 23.4848 51.03 23.4818ZM51.03 31.1353C50.5 31.1375 49.9812 30.9812 49.5394 30.686C49.0976 30.3908 48.7527 29.9702 48.5483 29.4773C48.3439 28.9844 48.2893 28.4415 48.3913 27.9172C48.4934 27.393 48.7475 26.9111 49.1215 26.5326C49.4955 26.1541 49.9725 25.8959 50.4922 25.7909C51.0119 25.6858 51.5509 25.7386 52.0408 25.9425C52.5307 26.1464 52.9495 26.4923 53.2442 26.9363C53.5389 27.3803 53.6962 27.9025 53.6962 28.4367C53.6933 29.1495 53.4118 29.8325 52.9127 30.3376C52.4137 30.8427 51.7372 31.1293 51.03 31.1353Z" fill="#A8ABFF"/>
</svg>
